<svg width="24" height="24" viewBox="0 0 24 24" fill="none" xmlns="http://www.w3.org/2000/svg">
<path fill-rule="evenodd" clip-rule="evenodd" d="M22.2789 6.59108C22.6736 7.97281 22.8182 9.74351 22.8182 12C22.8182 20.235 20.8927 22 11.9091 22C2.92545 22 1 20.235 1 12C1 9.75679 1.14287 7.99366 1.53236 6.61552C1.63151 6.26471 1.74663 5.93885 1.87945 5.63636C2.0059 5.34836 2.1484 5.08154 2.30841 4.83457C3.7438 2.61907 6.58862 2 11.9091 2C17.2204 2 20.0645 2.61693 21.5023 4.8231C21.6727 5.08453 21.8233 5.36828 21.956 5.67596C22.0785 5.96016 22.1857 6.26478 22.2789 6.59108ZM3.62909 6.18527C4.03512 5.36506 4.6396 4.83683 5.73721 4.46192C7.04321 4.01582 8.97566 3.81818 11.9091 3.81818C14.1173 3.81818 15.7774 3.92868 17.0407 4.18604C18.2915 4.44086 19.0271 4.81508 19.5039 5.25216C19.7598 5.48671 19.986 5.78096 20.18 6.16626C19.6344 6.72204 18.906 7.41973 18.0653 8.1155C17.1349 8.88555 16.0846 9.63833 15.0069 10.1955C13.9223 10.7563 12.866 11.0896 11.9079 11.0909C10.9477 11.0922 9.88885 10.7603 8.80128 10.2001C7.72058 9.64348 6.66708 8.89034 5.7336 8.11952C4.89902 7.43037 4.17468 6.73903 3.62909 6.18527ZM3.05352 8.16865C3.50088 8.59446 4.01413 9.05761 4.57592 9.5215C5.57001 10.3424 6.73401 11.1805 7.96874 11.8165C9.19661 12.4489 10.5511 12.9109 11.9103 12.9091C13.2666 12.9073 14.6175 12.4436 15.8419 11.8106C17.0732 11.174 18.2336 10.3363 19.2245 9.51621C19.7921 9.04649 20.3099 8.57767 20.76 8.14773C20.9175 9.12136 21 10.3731 21 12C21 16.1667 20.4586 17.8727 19.5039 18.7478C19.0271 19.1849 18.2915 19.5591 17.0407 19.814C15.7774 20.0713 14.1173 20.1818 11.9091 20.1818C9.70087 20.1818 8.04081 20.0713 6.77752 19.814C5.5267 19.5591 4.79108 19.1849 4.31427 18.7478C3.35957 17.8727 2.81818 16.1667 2.81818 12C2.81818 10.4035 2.89528 9.15459 3.05352 8.16865Z" fill="#FED700"/>
</svg>
