<svg width="24" height="24" viewBox="0 0 24 24" fill="none" xmlns="http://www.w3.org/2000/svg">
<path fill-rule="evenodd" clip-rule="evenodd" d="M12 7.16667C10.4667 7.16667 9.1577 7.21256 8.04263 7.32712C8.17958 6.28489 8.63413 5.52429 9.22686 4.99741C9.95883 4.34677 10.9631 4 12 4C13.0369 4 14.0412 4.34677 14.7731 4.99741C15.3659 5.52429 15.8204 6.28489 15.9574 7.32712C14.8423 7.21256 13.5333 7.16667 12 7.16667ZM16.1019 3.50259C17.1962 4.47535 17.9135 5.88724 17.9927 7.66833C21.17 8.47781 22 10.4313 22 14.6667C22 20.8429 20.235 22.1667 12 22.1667C3.765 22.1667 2 20.8429 2 14.6667C2 10.4313 2.83001 8.47781 6.00731 7.66833C6.08651 5.88724 6.80378 4.47535 7.89814 3.50259C9.04117 2.48656 10.5369 2 12 2C13.4631 2 14.9588 2.48656 16.1019 3.50259ZM5.11188 19.1328C4.48814 18.665 4 17.7377 4 14.6667C4 11.5956 4.48814 10.6684 5.11188 10.2006C5.48969 9.91721 6.13051 9.63642 7.29219 9.44279C8.45112 9.24962 9.97462 9.16667 12 9.16667C14.0254 9.16667 15.5489 9.24962 16.7078 9.44279C17.8695 9.63642 18.5103 9.91721 18.8881 10.2006C19.5119 10.6684 20 11.5956 20 14.6667C20 17.7377 19.5119 18.665 18.8881 19.1328C18.5103 19.4161 17.8695 19.6969 16.7078 19.8905C15.5489 20.0837 14.0254 20.1667 12 20.1667C9.97462 20.1667 8.45112 20.0837 7.29219 19.8905C6.13051 19.6969 5.48969 19.4161 5.11188 19.1328ZM11.5 14.6667C11.5 14.9428 11.7239 15.1667 12 15.1667C12.2761 15.1667 12.5 14.9428 12.5 14.6667C12.5 14.3905 12.2761 14.1667 12 14.1667C11.7239 14.1667 11.5 14.3905 11.5 14.6667ZM9.5 14.6667C9.5 16.0474 10.6193 17.1667 12 17.1667C13.3807 17.1667 14.5 16.0474 14.5 14.6667C14.5 13.286 13.3807 12.1667 12 12.1667C10.6193 12.1667 9.5 13.286 9.5 14.6667Z" fill="#FED700"/>
</svg>
