<svg width="24" height="24" viewBox="0 0 24 24" fill="none" xmlns="http://www.w3.org/2000/svg">
<path fill-rule="evenodd" clip-rule="evenodd" d="M8.83333 7C8.83333 8.84095 10.3257 10.3333 12.1667 10.3333C14.0076 10.3333 15.5 8.84095 15.5 7C15.5 5.15905 14.0076 3.66667 12.1667 3.66667C10.3257 3.66667 8.83333 5.15905 8.83333 7ZM7.16667 7C7.16667 9.76142 9.40524 12 12.1667 12C14.9281 12 17.1667 9.76142 17.1667 7C17.1667 4.23858 14.9281 2 12.1667 2C9.40524 2 7.16667 4.23858 7.16667 7ZM4.66667 17.8333C4.66667 18.5911 4.76192 18.9828 4.86803 19.1999C4.9433 19.3538 5.06613 19.5152 5.44222 19.6861C5.87278 19.8818 6.57257 20.0576 7.71726 20.1733C8.84597 20.2873 10.296 20.3333 12.1667 20.3333C14.0374 20.3333 15.4874 20.2873 16.6161 20.1733C17.7608 20.0576 18.4606 19.8818 18.8911 19.6861C19.2672 19.5152 19.39 19.3538 19.4653 19.1999C19.5714 18.9828 19.6667 18.5911 19.6667 17.8333C19.6667 17.0756 19.5714 16.6838 19.4653 16.4668C19.39 16.3129 19.2672 16.1515 18.8911 15.9806C18.4606 15.7849 17.7608 15.6091 16.6161 15.4934C15.4874 15.3794 14.0374 15.3333 12.1667 15.3333C10.296 15.3333 8.84597 15.3794 7.71726 15.4934C6.57257 15.6091 5.87278 15.7849 5.44222 15.9806C5.06613 16.1515 4.9433 16.3129 4.86803 16.4668C4.76192 16.6838 4.66667 17.0756 4.66667 17.8333ZM3 17.8333C3 21.2646 4.61792 22 12.1667 22C19.7154 22 21.3333 21.2646 21.3333 17.8333C21.3333 14.4021 19.7154 13.6667 12.1667 13.6667C4.61792 13.6667 3 14.4021 3 17.8333Z" fill="#FED700"/>
</svg>
